<?xml version="1.0" standalone="no"?>
<!DOCTYPE svg PUBLIC "-//W3C//DTD SVG 20010904//EN"
 "http://www.w3.org/TR/2001/REC-SVG-20010904/DTD/svg10.dtd">
<svg version="1.0" xmlns="http://www.w3.org/2000/svg"
 width="512.000000pt" height="512.000000pt" viewBox="0 0 512.000000 512.000000"
 preserveAspectRatio="xMidYMid meet">

<g transform="translate(0.000000,512.000000) scale(0.100000,-0.100000)"
fill="#000000" stroke="none">
<path d="M1438 4887 c-32 -25 -49 -31 -115 -37 -43 -4 -85 -11 -94 -14 -9 -4
-39 0 -68 9 -75 25 -139 8 -199 -53 -40 -41 -48 -46 -92 -46 -94 -2 -141 -69
-102 -146 18 -36 18 -41 4 -35 -68 26 -122 7 -122 -44 0 -35 28 -61 67 -61 31
0 73 -35 73 -61 0 -8 -25 -40 -57 -70 -31 -30 -64 -72 -74 -94 -21 -45 -24
-121 -8 -180 17 -60 73 -141 120 -172 41 -27 47 -28 208 -33 l166 -5 6 -45 c7
-47 95 -342 111 -373 5 -10 14 -17 20 -15 13 5 128 372 128 409 0 26 0 26 124
37 161 14 201 35 232 119 19 55 18 107 -4 126 -28 25 -69 21 -88 -8 -14 -21
-14 -30 -4 -56 11 -26 11 -33 -3 -46 -15 -15 -121 -31 -214 -32 l-42 -1 -3
288 -3 287 -28 59 c-15 33 -39 75 -54 94 -25 34 -25 35 -8 48 10 8 24 14 31
14 23 0 73 51 105 106 17 30 30 57 28 58 -2 2 -21 -10 -41 -27z m-488 -407 c0
-6 -71 -53 -74 -48 -1 2 -10 21 -21 43 -11 22 -21 43 -23 46 -1 4 24 -3 58
-15 33 -11 60 -23 60 -26z m0 -130 c12 0 55 12 96 26 108 39 104 46 104 -207
l0 -208 -142 -3 c-168 -4 -197 4 -242 69 -22 32 -31 57 -34 101 l-4 58 65 64
c47 47 68 77 76 107 l11 42 25 -25 c13 -13 34 -24 45 -24z"/>
<path d="M2678 4459 c-315 -33 -586 -197 -783 -473 -70 -99 -155 -273 -202
-416 -45 -136 -80 -286 -70 -296 6 -6 326 72 562 137 38 10 73 15 77 11 15
-15 20 -149 8 -220 -25 -153 -136 -315 -271 -398 -47 -29 -55 -39 -52 -59 3
-13 -2 -48 -11 -78 -13 -43 -27 -65 -65 -100 -42 -37 -64 -48 -143 -69 -85
-22 -93 -27 -96 -50 -7 -58 108 -309 212 -461 43 -64 67 -112 76 -148 62 -270
133 -550 145 -578 15 -31 14 -38 -17 -138 -24 -79 -37 -107 -52 -114 -12 -4
-129 -26 -261 -49 -132 -23 -246 -47 -253 -54 -9 -9 -10 -19 -3 -39 13 -35 33
-35 220 -1 79 14 145 23 147 22 2 -2 -40 -31 -93 -63 -52 -33 -97 -65 -100
-71 -8 -22 17 -54 42 -54 13 0 78 34 145 76 112 70 125 76 187 81 62 5 75 2
151 -31 46 -20 90 -36 97 -36 21 0 38 28 31 54 -5 19 -26 32 -107 67 -56 24
-104 50 -107 58 -3 8 11 65 32 128 30 90 41 113 56 113 10 0 56 38 101 85 63
64 86 82 95 74 8 -6 75 -131 149 -277 75 -147 147 -278 159 -292 13 -14 22
-29 20 -35 -1 -5 -10 -36 -19 -67 -15 -55 -22 -64 -155 -184 -77 -70 -142
-135 -145 -144 -7 -24 4 -49 27 -61 24 -13 34 -6 142 90 107 94 109 93 124
-86 9 -111 14 -140 28 -150 25 -18 41 -16 65 8 17 17 20 29 15 62 -3 23 -8 84
-12 135 -5 75 -4 92 7 92 8 0 48 -38 89 -85 41 -47 77 -85 81 -85 4 0 14 -3
22 -6 8 -3 22 2 31 11 33 33 20 60 -88 180 -59 65 -110 131 -116 150 -15 46
10 138 49 180 15 17 57 68 93 115 37 47 77 96 91 109 l26 23 203 -128 c112
-70 288 -181 391 -247 104 -65 191 -117 193 -114 3 3 -27 82 -66 177 -39 95
-70 174 -68 176 2 2 71 -50 153 -115 83 -65 152 -117 154 -116 7 7 -315 1098
-336 1139 -9 17 -19 44 -22 59 l-6 28 -29 -38 c-97 -129 -260 -148 -393 -47
-36 27 -36 27 -82 10 -57 -20 -125 -21 -180 -1 -91 32 -195 126 -267 242 -99
157 -146 320 -170 577 -25 277 4 489 91 671 118 247 336 320 549 185 26 -17
50 -29 52 -28 2 2 -12 30 -31 61 -19 32 -35 60 -35 62 0 3 142 6 316 7 l317 3
-334 123 c-418 154 -386 142 -400 158 -9 11 -4 11 31 -1 70 -25 15 -37 763
181 9 3 17 9 17 13 0 21 -121 137 -193 185 -168 111 -354 164 -648 185 -162
12 -239 12 -351 0z m-149 -343 c38 -17 64 -21 146 -20 112 0 165 17 222 71 18
17 35 28 38 25 13 -13 3 -44 -25 -75 -96 -110 -348 -116 -456 -12 -31 29 -44
50 -44 69 l0 28 37 -32 c20 -18 57 -42 82 -54z"/>
<path d="M3590 3861 c-18 -12 -17 -13 42 -35 84 -31 183 -137 207 -224 l9 -30
-67 -7 c-173 -18 -274 -126 -275 -295 -1 -63 4 -85 27 -132 16 -32 47 -73 69
-92 70 -60 109 -68 345 -64 236 3 251 7 328 84 54 54 75 114 75 211 0 157 -88
258 -246 284 -56 9 -74 16 -74 28 0 34 -51 123 -97 169 -70 69 -148 103 -247
109 -46 2 -87 0 -96 -6z m129 -11 c143 -24 258 -122 292 -251 l12 -47 62 -4
c100 -8 188 -67 230 -154 26 -54 27 -193 1 -246 -23 -48 -77 -103 -129 -131
-40 -21 -53 -22 -257 -22 l-215 0 -54 30 c-62 34 -116 99 -132 159 -18 68 -7
176 25 230 51 87 144 136 260 136 l54 0 -10 38 c-27 97 -91 180 -180 231 -27
15 -45 31 -41 34 8 9 6 9 82 -3z"/>
<path d="M3643 3328 c-29 -33 -33 -50 -17 -86 14 -34 54 -56 85 -47 27 9 59
54 59 82 0 33 -42 73 -78 73 -17 0 -37 -9 -49 -22z"/>
<path d="M3881 3333 c-11 -10 -24 -32 -27 -50 -5 -27 -1 -37 25 -64 26 -25 37
-30 59 -24 53 13 79 56 61 102 -20 52 -77 70 -118 36z"/>
<path d="M4115 3325 c-40 -40 -32 -96 17 -121 79 -41 151 71 82 125 -35 28
-69 26 -99 -4z"/>
<path d="M1350 3513 c-65 -211 -76 -222 -110 -111 -12 40 -37 120 -55 178
l-33 105 -1 -267 c-1 -148 1 -268 4 -268 3 0 62 14 130 31 l125 31 0 239 c0
132 -1 239 -3 239 -1 0 -27 -80 -57 -177z"/>
<path d="M2885 3507 c-62 -25 -93 -48 -141 -100 -62 -68 -108 -159 -141 -284
-25 -92 -27 -111 -27 -318 0 -167 4 -242 17 -310 66 -339 248 -590 452 -621
28 -4 59 1 98 14 47 15 59 17 68 6 6 -7 38 -27 72 -44 46 -23 74 -30 117 -30
232 0 353 305 279 710 -67 369 -199 652 -391 835 -110 106 -192 147 -298 152
-44 1 -87 -2 -105 -10z m-104 -802 c38 -150 139 -299 232 -344 48 -23 113 -27
151 -9 21 9 29 8 44 -5 54 -49 144 -59 207 -24 47 26 100 108 111 170 4 23 9
36 11 29 9 -25 -29 -161 -55 -200 -47 -70 -77 -87 -152 -87 -54 0 -72 5 -108
28 -33 22 -46 25 -62 17 -29 -15 -107 -12 -143 6 -139 72 -245 271 -260 484
-2 36 -3 54 0 40 2 -14 13 -61 24 -105z"/>
<path d="M2115 3359 c-60 -16 -371 -97 -690 -178 -319 -82 -593 -155 -608
-162 -31 -14 -57 -55 -57 -90 0 -13 27 -113 59 -223 45 -153 63 -232 74 -329
12 -108 18 -132 37 -153 13 -13 31 -26 40 -29 24 -8 474 110 514 134 38 24 73
67 105 128 19 38 27 44 79 58 164 46 193 63 223 129 10 23 19 64 19 92 l0 51
59 36 c159 99 262 247 278 403 6 56 -4 164 -15 163 -4 0 -56 -14 -117 -30z"/>
<path d="M1280 2226 l-125 -32 -3 -480 c-2 -310 1 -492 7 -515 25 -86 110
-160 204 -178 l47 -8 0 623 c0 343 -1 624 -2 623 -2 0 -59 -15 -128 -33z"/>
</g>
</svg>
